# xmcd CD database file
#
# Track frame offsets:
#	150
#	16281
#	33742
#	52854
#	77390
#	93335
#	108643
#	127914
#	139973
#	153085
#	164648
#
# Disc length: 2492 seconds
#
# Revision: 2
# Processed by: cddbd v1.5.2PL0 Copyright (c) Steve Scherf et al.
# Submitted via: CDex 1.70beta2
#
DISCID=8309ba0b
DTITLE=Jimmy Thackery, 1953- - Healin' Ground
DYEAR=2005
DGENRE=Blues Modern Electric 1991-2000
TTITLE0=Let the Guitar Do the Work - Gary Nicholson, Jimmy Thackery
TTITLE1=Fender Bender - Kenny Greenberg, Gary Nicholson, Jimmy Thackery
TTITLE2=Healin' Ground - Gary Nicholson, Jimmy Thackery
TTITLE3=Had Enough - Tom Hambridge, Gary Nicholson, Jimmy Thackery
TTITLE4=Devil's Toolbox - Gary Nicholson
TTITLE5=Weaker Than You Know - Gary Nicholson, Jimmy Thackery
TTITLE6=Upside of Lonely - Tom Hambridge, Gary Nicholson, Jimmy Thackery
TTITLE7=Kickin' Chicken - Jimmy Thackery
TTITLE8=Get Up - Tom Hambridge, Gary Nicholson, Jimmy Thackery
TTITLE9=A Shot in the Dark - Henry Mancini
TTITLE10=Can't Lose What You Never Had - McKinley Morganfield
EXTD=YEAR: 2005
EXTT0=
EXTT1=
EXTT2=
EXTT3=
EXTT4=
EXTT5=
EXTT6=
EXTT7=
EXTT8=
EXTT9=
EXTT10=
PLAYORDER=
